<svg xmlns="http://www.w3.org/2000/svg" viewBox="0 0 1280 640" width="1280" height="640">
  <defs>

    <linearGradient id="bg" x1="0%" y1="0%" x2="100%" y2="100%">
      <stop offset="0%"   stop-color="#04010f"/>
      <stop offset="50%"  stop-color="#0d0520"/>
      <stop offset="100%" stop-color="#020811"/>
    </linearGradient>

    <!-- Main holographic rainbow -->
    <linearGradient id="holo" x1="0%" y1="0%" x2="100%" y2="100%">
      <stop offset="0%"   stop-color="#ff6ec7"/>
      <stop offset="16%"  stop-color="#a78bfa"/>
      <stop offset="32%"  stop-color="#60a5fa"/>
      <stop offset="48%"  stop-color="#34d399"/>
      <stop offset="64%"  stop-color="#fde68a"/>
      <stop offset="80%"  stop-color="#fb923c"/>
      <stop offset="100%" stop-color="#f472b6"/>
    </linearGradient>

    <!-- Iridescent shimmer -->
    <linearGradient id="iri" x1="100%" y1="0%" x2="0%" y2="100%">
      <stop offset="0%"   stop-color="#ffffff" stop-opacity="0.6"/>
      <stop offset="30%"  stop-color="#c4b5fd" stop-opacity="0.3"/>
      <stop offset="60%"  stop-color="#7dd3fc" stop-opacity="0.4"/>
      <stop offset="100%" stop-color="#ffffff" stop-opacity="0.5"/>
    </linearGradient>

    <!-- Foil streak -->
    <linearGradient id="foil" x1="0%" y1="20%" x2="100%" y2="80%">
      <stop offset="0%"   stop-color="#ffffff" stop-opacity="0.0"/>
      <stop offset="45%"  stop-color="#ffffff" stop-opacity="0.12"/>
      <stop offset="50%"  stop-color="#ffffff" stop-opacity="0.50"/>
      <stop offset="55%"  stop-color="#ffffff" stop-opacity="0.12"/>
      <stop offset="100%" stop-color="#ffffff" stop-opacity="0.0"/>
    </linearGradient>

    <!-- Ghost body gradient per companion -->
    <radialGradient id="g1" cx="38%" cy="30%" r="65%">
      <stop offset="0%"   stop-color="#c4b5fd"/>
      <stop offset="100%" stop-color="#6d28d9"/>
    </radialGradient>
    <radialGradient id="g2" cx="38%" cy="30%" r="65%">
      <stop offset="0%"   stop-color="#f9a8d4"/>
      <stop offset="100%" stop-color="#be185d"/>
    </radialGradient>
    <radialGradient id="g3" cx="38%" cy="30%" r="65%">
      <stop offset="0%"   stop-color="#6ee7b7"/>
      <stop offset="100%" stop-color="#065f46"/>
    </radialGradient>
    <radialGradient id="g4" cx="38%" cy="30%" r="65%">
      <stop offset="0%"   stop-color="#fca5a5"/>
      <stop offset="100%" stop-color="#991b1b"/>
    </radialGradient>
    <radialGradient id="g5" cx="38%" cy="30%" r="65%">
      <stop offset="0%"   stop-color="#fde68a"/>
      <stop offset="100%" stop-color="#92400e"/>
    </radialGradient>

    <!-- Glow filter -->
    <filter id="glow" x="-40%" y="-40%" width="180%" height="180%">
      <feGaussianBlur stdDeviation="10" result="blur"/>
      <feMerge><feMergeNode in="blur"/><feMergeNode in="SourceGraphic"/></feMerge>
    </filter>
    <filter id="softglow" x="-60%" y="-60%" width="220%" height="220%">
      <feGaussianBlur stdDeviation="18"/>
    </filter>
    <filter id="textshadow">
      <feDropShadow dx="0" dy="0" stdDeviation="14" flood-color="#a78bfa" flood-opacity="0.7"/>
    </filter>

    <!-- Spark radial -->
    <radialGradient id="spark" cx="50%" cy="50%" r="50%">
      <stop offset="0%"   stop-color="#fef9c3"/>
      <stop offset="50%"  stop-color="#fbbf24"/>
      <stop offset="100%" stop-color="#f97316" stop-opacity="0"/>
    </radialGradient>

    <!-- Text gradient -->
    <linearGradient id="tg" x1="0%" y1="0%" x2="100%" y2="0%">
      <stop offset="0%"   stop-color="#f9a8d4"/>
      <stop offset="20%"  stop-color="#c4b5fd"/>
      <stop offset="40%"  stop-color="#7dd3fc"/>
      <stop offset="60%"  stop-color="#6ee7b7"/>
      <stop offset="80%"  stop-color="#fde68a"/>
      <stop offset="100%" stop-color="#fb923c"/>
    </linearGradient>

    <linearGradient id="subg" x1="0%" y1="0%" x2="100%" y2="0%">
      <stop offset="0%"   stop-color="#c4b5fd"/>
      <stop offset="50%"  stop-color="#7dd3fc"/>
      <stop offset="100%" stop-color="#6ee7b7"/>
    </linearGradient>

  </defs>

  <!-- ── BACKGROUND ── -->
  <rect width="1280" height="640" fill="url(#bg)"/>

  <!-- Iridescent wash -->
  <rect width="1280" height="640" fill="url(#holo)" opacity="0.07"/>

  <!-- Ambient light pools -->
  <ellipse cx="200"  cy="320" rx="280" ry="200" fill="#7c3aed" opacity="0.12" filter="url(#softglow)"/>
  <ellipse cx="1080" cy="320" rx="280" ry="200" fill="#0ea5e9" opacity="0.12" filter="url(#softglow)"/>
  <ellipse cx="640"  cy="120" rx="400" ry="120" fill="#a78bfa" opacity="0.10" filter="url(#softglow)"/>
  <ellipse cx="640"  cy="560" rx="350" ry="100" fill="#34d399" opacity="0.08" filter="url(#softglow)"/>

  <!-- Grid lines — subtle -->
  <g opacity="0.04" stroke="#ffffff" stroke-width="1">
    <line x1="0"    y1="160" x2="1280" y2="160"/>
    <line x1="0"    y1="320" x2="1280" y2="320"/>
    <line x1="0"    y1="480" x2="1280" y2="480"/>
    <line x1="256"  y1="0"   x2="256"  y2="640"/>
    <line x1="512"  y1="0"   x2="512"  y2="640"/>
    <line x1="768"  y1="0"   x2="768"  y2="640"/>
    <line x1="1024" y1="0"   x2="1024" y2="640"/>
  </g>

  <!-- ══════════════════════════════════════ -->
  <!-- 5 GHOST COMPANIONS                    -->
  <!-- ══════════════════════════════════════ -->

  <!-- Ghost helper macro — inline since SVG has no macros -->
  <!-- Each ghost: cx = horizontal center, body from cy-90 to cy+110 -->

  <!-- ── Ghost 1: NOX (Blue-Violet) cx=128 ── -->
  <g transform="translate(128,320)">
    <!-- glow pool -->
    <ellipse cx="0" cy="60" rx="70" ry="30" fill="#6d28d9" opacity="0.35" filter="url(#softglow)"/>
    <!-- body -->
    <path d="M0,-88 C-46,-88 -72,-54 -72,0 L-72,90 C-72,90 -54,74 -36,86 C-18,98 0,78 18,90 C36,102 54,78 72,86 L72,0 C72,-54 46,-88 0,-88 Z"
          fill="url(#g1)" opacity="0.92"/>
    <path d="M0,-88 C-46,-88 -72,-54 -72,0 L-72,90 C-72,90 -54,74 -36,86 C-18,98 0,78 18,90 C36,102 54,78 72,86 L72,0 C72,-54 46,-88 0,-88 Z"
          fill="url(#iri)" opacity="0.5"/>
    <path d="M0,-88 C-46,-88 -72,-54 -72,0 L-72,90 C-72,90 -54,74 -36,86 C-18,98 0,78 18,90 C36,102 54,78 72,86 L72,0 C72,-54 46,-88 0,-88 Z"
          fill="url(#foil)" opacity="0.6"/>
    <path d="M0,-88 C-46,-88 -72,-54 -72,0 L-72,90 C-72,90 -54,74 -36,86 C-18,98 0,78 18,90 C36,102 54,78 72,86 L72,0 C72,-54 46,-88 0,-88 Z"
          fill="none" stroke="#ffffff" stroke-width="1.8" opacity="0.3"/>
    <!-- eyes -->
    <ellipse cx="-24" cy="-18" rx="13" ry="14" fill="#0c0a1a"/>
    <ellipse cx="24"  cy="-18" rx="13" ry="14" fill="#0c0a1a"/>
    <ellipse cx="-28" cy="-22" rx="5"  ry="5"  fill="#ffffff" opacity="0.9"/>
    <ellipse cx="20"  cy="-22" rx="5"  ry="5"  fill="#ffffff" opacity="0.9"/>
    <!-- calm expression — flat line -->
    <path d="M-14,10 Q0,18 14,10" fill="none" stroke="#0c0a1a" stroke-width="3" stroke-linecap="round"/>
    <!-- label -->
    <text y="128" text-anchor="middle" font-family="'Arial Black',sans-serif" font-size="15" font-weight="900" fill="#c4b5fd" opacity="0.9">NOX</text>
    <text y="146" text-anchor="middle" font-family="Arial,sans-serif" font-size="11" fill="#a78bfa" opacity="0.7">The Wise Sage</text>
  </g>

  <!-- ── Ghost 2: ZURI (Pink-Violet) cx=344 ── -->
  <g transform="translate(344,310)">
    <ellipse cx="0" cy="60" rx="70" ry="30" fill="#be185d" opacity="0.35" filter="url(#softglow)"/>
    <path d="M0,-88 C-46,-88 -72,-54 -72,0 L-72,90 C-72,90 -54,74 -36,86 C-18,98 0,78 18,90 C36,102 54,78 72,86 L72,0 C72,-54 46,-88 0,-88 Z"
          fill="url(#g2)" opacity="0.92"/>
    <path d="M0,-88 C-46,-88 -72,-54 -72,0 L-72,90 C-72,90 -54,74 -36,86 C-18,98 0,78 18,90 C36,102 54,78 72,86 L72,0 C72,-54 46,-88 0,-88 Z"
          fill="url(#iri)" opacity="0.5"/>
    <path d="M0,-88 C-46,-88 -72,-54 -72,0 L-72,90 C-72,90 -54,74 -36,86 C-18,98 0,78 18,90 C36,102 54,78 72,86 L72,0 C72,-54 46,-88 0,-88 Z"
          fill="url(#foil)" opacity="0.6"/>
    <path d="M0,-88 C-46,-88 -72,-54 -72,0 L-72,90 C-72,90 -54,74 -36,86 C-18,98 0,78 18,90 C36,102 54,78 72,86 L72,0 C72,-54 46,-88 0,-88 Z"
          fill="none" stroke="#ffffff" stroke-width="1.8" opacity="0.3"/>
    <!-- mischievous eyes — half closed -->
    <path d="M-36,-24 Q-24,-32 -12,-24" fill="none" stroke="#0c0a1a" stroke-width="3.5" stroke-linecap="round"/>
    <path d="M12,-24 Q24,-32 36,-24"    fill="none" stroke="#0c0a1a" stroke-width="3.5" stroke-linecap="round"/>
    <ellipse cx="-26" cy="-20" rx="7" ry="6" fill="#0c0a1a"/>
    <ellipse cx="26"  cy="-20" rx="7" ry="6" fill="#0c0a1a"/>
    <!-- smirk -->
    <path d="M-8,12 Q8,24 22,14" fill="none" stroke="#0c0a1a" stroke-width="3" stroke-linecap="round"/>
    <text y="128" text-anchor="middle" font-family="'Arial Black',sans-serif" font-size="15" font-weight="900" fill="#f9a8d4" opacity="0.9">ZURI</text>
    <text y="146" text-anchor="middle" font-family="Arial,sans-serif" font-size="11" fill="#ec4899" opacity="0.7">The Trickster</text>
  </g>

  <!-- ── Ghost 3: PIP (Green) cx=640 — CENTER HERO ── -->
  <g transform="translate(640,295)">
    <ellipse cx="0" cy="80" rx="90" ry="38" fill="#065f46" opacity="0.4" filter="url(#softglow)"/>
    <!-- bigger hero ghost -->
    <path d="M0,-108 C-58,-108 -90,-66 -90,0 L-90,112 C-90,112 -68,90 -44,108 C-20,126 0,98 24,112 C48,126 68,98 90,108 L90,0 C90,-66 58,-108 0,-108 Z"
          fill="url(#g3)" opacity="0.95"/>
    <path d="M0,-108 C-58,-108 -90,-66 -90,0 L-90,112 C-90,112 -68,90 -44,108 C-20,126 0,98 24,112 C48,126 68,98 90,108 L90,0 C90,-66 58,-108 0,-108 Z"
          fill="url(#iri)" opacity="0.55"/>
    <path d="M0,-108 C-58,-108 -90,-66 -90,0 L-90,112 C-90,112 -68,90 -44,108 C-20,126 0,98 24,112 C48,126 68,98 90,108 L90,0 C90,-66 58,-108 0,-108 Z"
          fill="url(#foil)" opacity="0.65"/>
    <path d="M0,-108 C-58,-108 -90,-66 -90,0 L-90,112 C-90,112 -68,90 -44,108 C-20,126 0,98 24,112 C48,126 68,98 90,108 L90,0 C90,-66 58,-108 0,-108 Z"
          fill="none" stroke="#ffffff" stroke-width="2.5" opacity="0.35"/>
    <!-- big curious eyes -->
    <ellipse cx="-28" cy="-20" rx="18" ry="20" fill="#0c0a1a"/>
    <ellipse cx="28"  cy="-20" rx="18" ry="20" fill="#0c0a1a"/>
    <ellipse cx="-34" cy="-28" rx="7"  ry="7"  fill="#ffffff" opacity="0.95"/>
    <ellipse cx="22"  cy="-28" rx="7"  ry="7"  fill="#ffffff" opacity="0.95"/>
    <ellipse cx="-20" cy="-12" rx="3"  ry="3"  fill="#ffffff" opacity="0.5"/>
    <ellipse cx="36"  cy="-12" rx="3"  ry="3"  fill="#ffffff" opacity="0.5"/>
    <!-- happy open mouth -->
    <path d="M-18,18 Q0,38 18,18" fill="#0c0a1a" stroke="#0c0a1a" stroke-width="2"/>
    <ellipse cx="0" cy="26" rx="10" ry="6" fill="#0c0a1a"/>
    <!-- sparkle on top -->
    <circle cx="0" cy="-130" r="7" fill="url(#spark)"/>
    <line x1="0"   y1="-143" x2="0"   y2="-150" stroke="#fef08a" stroke-width="2.5" stroke-linecap="round"/>
    <line x1="0"   y1="-117" x2="0"   y2="-110" stroke="#fef08a" stroke-width="2.5" stroke-linecap="round"/>
    <line x1="-13" y1="-130" x2="-20" y2="-130" stroke="#fef08a" stroke-width="2.5" stroke-linecap="round"/>
    <line x1="13"  y1="-130" x2="20"  y2="-130" stroke="#fef08a" stroke-width="2.5" stroke-linecap="round"/>
    <line x1="-9"  y1="-139" x2="-14" y2="-144" stroke="#fef08a" stroke-width="2" stroke-linecap="round"/>
    <line x1="9"   y1="-139" x2="14"  y2="-144" stroke="#fef08a" stroke-width="2" stroke-linecap="round"/>
    <line x1="-9"  y1="-121" x2="-14" y2="-116" stroke="#fef08a" stroke-width="2" stroke-linecap="round"/>
    <line x1="9"   y1="-121" x2="14"  y2="-116" stroke="#fef08a" stroke-width="2" stroke-linecap="round"/>
    <text y="152" text-anchor="middle" font-family="'Arial Black',sans-serif" font-size="16" font-weight="900" fill="#6ee7b7" opacity="0.95">PIP</text>
    <text y="172" text-anchor="middle" font-family="Arial,sans-serif" font-size="11" fill="#34d399" opacity="0.7">The Explorer</text>
  </g>

  <!-- ── Ghost 4: KAEL (Red) cx=936 ── -->
  <g transform="translate(936,310)">
    <ellipse cx="0" cy="60" rx="70" ry="30" fill="#991b1b" opacity="0.35" filter="url(#softglow)"/>
    <path d="M0,-88 C-46,-88 -72,-54 -72,0 L-72,90 C-72,90 -54,74 -36,86 C-18,98 0,78 18,90 C36,102 54,78 72,86 L72,0 C72,-54 46,-88 0,-88 Z"
          fill="url(#g4)" opacity="0.92"/>
    <path d="M0,-88 C-46,-88 -72,-54 -72,0 L-72,90 C-72,90 -54,74 -36,86 C-18,98 0,78 18,90 C36,102 54,78 72,86 L72,0 C72,-54 46,-88 0,-88 Z"
          fill="url(#iri)" opacity="0.5"/>
    <path d="M0,-88 C-46,-88 -72,-54 -72,0 L-72,90 C-72,90 -54,74 -36,86 C-18,98 0,78 18,90 C36,102 54,78 72,86 L72,0 C72,-54 46,-88 0,-88 Z"
          fill="url(#foil)" opacity="0.6"/>
    <path d="M0,-88 C-46,-88 -72,-54 -72,0 L-72,90 C-72,90 -54,74 -36,86 C-18,98 0,78 18,90 C36,102 54,78 72,86 L72,0 C72,-54 46,-88 0,-88 Z"
          fill="none" stroke="#ffffff" stroke-width="1.8" opacity="0.3"/>
    <!-- sharp determined eyes -->
    <path d="M-36,-28 L-12,-22" stroke="#0c0a1a" stroke-width="4" stroke-linecap="round"/>
    <path d="M36,-28 L12,-22"  stroke="#0c0a1a" stroke-width="4" stroke-linecap="round"/>
    <ellipse cx="-24" cy="-18" rx="11" ry="12" fill="#0c0a1a"/>
    <ellipse cx="24"  cy="-18" rx="11" ry="12" fill="#0c0a1a"/>
    <ellipse cx="-30" cy="-24" rx="4"  ry="4"  fill="#ffffff" opacity="0.9"/>
    <ellipse cx="18"  cy="-24" rx="4"  ry="4"  fill="#ffffff" opacity="0.9"/>
    <!-- flat serious mouth -->
    <line x1="-14" y1="12" x2="14" y2="12" stroke="#0c0a1a" stroke-width="3.5" stroke-linecap="round"/>
    <text y="128" text-anchor="middle" font-family="'Arial Black',sans-serif" font-size="15" font-weight="900" fill="#fca5a5" opacity="0.9">KAEL</text>
    <text y="146" text-anchor="middle" font-family="Arial,sans-serif" font-size="11" fill="#ef4444" opacity="0.7">The Warrior</text>
  </g>

  <!-- ── Ghost 5: LUNA (Gold) cx=1152 ── -->
  <g transform="translate(1152,320)">
    <ellipse cx="0" cy="60" rx="70" ry="30" fill="#92400e" opacity="0.35" filter="url(#softglow)"/>
    <path d="M0,-88 C-46,-88 -72,-54 -72,0 L-72,90 C-72,90 -54,74 -36,86 C-18,98 0,78 18,90 C36,102 54,78 72,86 L72,0 C72,-54 46,-88 0,-88 Z"
          fill="url(#g5)" opacity="0.92"/>
    <path d="M0,-88 C-46,-88 -72,-54 -72,0 L-72,90 C-72,90 -54,74 -36,86 C-18,98 0,78 18,90 C36,102 54,78 72,86 L72,0 C72,-54 46,-88 0,-88 Z"
          fill="url(#iri)" opacity="0.5"/>
    <path d="M0,-88 C-46,-88 -72,-54 -72,0 L-72,90 C-72,90 -54,74 -36,86 C-18,98 0,78 18,90 C36,102 54,78 72,86 L72,0 C72,-54 46,-88 0,-88 Z"
          fill="url(#foil)" opacity="0.6"/>
    <path d="M0,-88 C-46,-88 -72,-54 -72,0 L-72,90 C-72,90 -54,74 -36,86 C-18,98 0,78 18,90 C36,102 54,78 72,86 L72,0 C72,-54 46,-88 0,-88 Z"
          fill="none" stroke="#ffffff" stroke-width="1.8" opacity="0.3"/>
    <!-- warm soft eyes -->
    <ellipse cx="-22" cy="-18" rx="14" ry="15" fill="#0c0a1a"/>
    <ellipse cx="22"  cy="-18" rx="14" ry="15" fill="#0c0a1a"/>
    <ellipse cx="-28" cy="-24" rx="6"  ry="6"  fill="#ffffff" opacity="0.95"/>
    <ellipse cx="16"  cy="-24" rx="6"  ry="6"  fill="#ffffff" opacity="0.95"/>
    <!-- gentle smile -->
    <path d="M-16,10 Q0,28 16,10" fill="none" stroke="#0c0a1a" stroke-width="3.5" stroke-linecap="round"/>
    <!-- heart -->
    <path d="M-6,-52 C-6,-56 -12,-60 -12,-54 C-12,-48 -6,-44 -6,-40 C-6,-44 0,-48 0,-54 C0,-60 -6,-56 -6,-52 Z"
          fill="#f9a8d4" opacity="0.9" transform="scale(1.4)"/>
    <text y="128" text-anchor="middle" font-family="'Arial Black',sans-serif" font-size="15" font-weight="900" fill="#fde68a" opacity="0.9">LUNA</text>
    <text y="146" text-anchor="middle" font-family="Arial,sans-serif" font-size="11" fill="#f59e0b" opacity="0.7">The Empath</text>
  </g>

  <!-- ══════════════════════════════════════ -->
  <!-- SCATTERED SPARKS & SPECKS             -->
  <!-- ══════════════════════════════════════ -->
  <!-- Big sparks -->
  <g opacity="0.9">
    <circle cx="490" cy="140" r="8" fill="url(#spark)"/>
    <line x1="490" y1="126" x2="490" y2="118" stroke="#fef08a" stroke-width="2.5" stroke-linecap="round"/>
    <line x1="490" y1="154" x2="490" y2="162" stroke="#fef08a" stroke-width="2.5" stroke-linecap="round"/>
    <line x1="476" y1="140" x2="468" y2="140" stroke="#fef08a" stroke-width="2.5" stroke-linecap="round"/>
    <line x1="504" y1="140" x2="512" y2="140" stroke="#fef08a" stroke-width="2.5" stroke-linecap="round"/>
    <line x1="480" y1="130" x2="474" y2="124" stroke="#fef08a" stroke-width="2" stroke-linecap="round"/>
    <line x1="500" y1="150" x2="506" y2="156" stroke="#fef08a" stroke-width="2" stroke-linecap="round"/>
    <line x1="500" y1="130" x2="506" y2="124" stroke="#fef08a" stroke-width="2" stroke-linecap="round"/>
    <line x1="480" y1="150" x2="474" y2="156" stroke="#fef08a" stroke-width="2" stroke-linecap="round"/>
  </g>
  <g opacity="0.8">
    <circle cx="790" cy="520" r="6" fill="url(#spark)"/>
    <line x1="790" y1="510" x2="790" y2="504" stroke="#fbbf24" stroke-width="2" stroke-linecap="round"/>
    <line x1="790" y1="530" x2="790" y2="536" stroke="#fbbf24" stroke-width="2" stroke-linecap="round"/>
    <line x1="780" y1="520" x2="774" y2="520" stroke="#fbbf24" stroke-width="2" stroke-linecap="round"/>
    <line x1="800" y1="520" x2="806" y2="520" stroke="#fbbf24" stroke-width="2" stroke-linecap="round"/>
  </g>
  <g opacity="0.7">
    <circle cx="220" cy="480" r="5" fill="url(#spark)"/>
    <line x1="220" y1="471" x2="220" y2="466" stroke="#fbbf24" stroke-width="2" stroke-linecap="round"/>
    <line x1="220" y1="489" x2="220" y2="494" stroke="#fbbf24" stroke-width="2" stroke-linecap="round"/>
    <line x1="211" y1="480" x2="206" y2="480" stroke="#fbbf24" stroke-width="2" stroke-linecap="round"/>
    <line x1="229" y1="480" x2="234" y2="480" stroke="#fbbf24" stroke-width="2" stroke-linecap="round"/>
  </g>
  <g opacity="0.75">
    <circle cx="1060" cy="160" r="5" fill="url(#spark)"/>
    <line x1="1060" y1="151" x2="1060" y2="146" stroke="#fbbf24" stroke-width="2" stroke-linecap="round"/>
    <line x1="1060" y1="169" x2="1060" y2="174" stroke="#fbbf24" stroke-width="2" stroke-linecap="round"/>
    <line x1="1051" y1="160" x2="1046" y2="160" stroke="#fbbf24" stroke-width="2" stroke-linecap="round"/>
    <line x1="1069" y1="160" x2="1074" y2="160" stroke="#fbbf24" stroke-width="2" stroke-linecap="round"/>
  </g>

  <!-- Floating specks -->
  <circle cx="80"  cy="200" r="3" fill="#c4b5fd" opacity="0.7"/>
  <circle cx="430" cy="80"  r="2" fill="#67e8f9" opacity="0.6"/>
  <circle cx="560" cy="560" r="3" fill="#86efac" opacity="0.65"/>
  <circle cx="720" cy="90"  r="2.5" fill="#f9a8d4" opacity="0.6"/>
  <circle cx="850" cy="570" r="2" fill="#fde68a" opacity="0.55"/>
  <circle cx="1000" cy="80" r="3" fill="#a5b4fc" opacity="0.65"/>
  <circle cx="1200" cy="500" r="2.5" fill="#6ee7b7" opacity="0.6"/>
  <circle cx="300" cy="580" r="2" fill="#fca5a5" opacity="0.55"/>
  <circle cx="640" cy="50"  r="4" fill="#fde68a" opacity="0.5"/>
  <circle cx="1180" cy="220" r="2" fill="#c4b5fd" opacity="0.6"/>

  <!-- ══════════════════════════════════════ -->
  <!-- MAIN TITLE TEXT                        -->
  <!-- ══════════════════════════════════════ -->

  <!-- Title glow -->
  <text x="640" y="88"
        text-anchor="middle"
        font-family="'Arial Black','Helvetica Neue',sans-serif"
        font-weight="900" font-size="72" letter-spacing="16"
        fill="#7c3aed" opacity="0.6" filter="url(#softglow)">✦ GLIMMER</text>

  <!-- Title holographic -->
  <text x="640" y="88"
        text-anchor="middle"
        font-family="'Arial Black','Helvetica Neue',sans-serif"
        font-weight="900" font-size="72" letter-spacing="16"
        fill="url(#tg)" filter="url(#textshadow)">✦ GLIMMER</text>

  <!-- Tagline -->
  <text x="640" y="122"
        text-anchor="middle"
        font-family="'Courier New',monospace"
        font-size="15" letter-spacing="6"
        fill="url(#subg)" opacity="0.85">YOUR PHONE, ALIVE</text>

  <!-- Divider line -->
  <line x1="440" y1="136" x2="840" y2="136" stroke="url(#holo)" stroke-width="1.5" opacity="0.5"/>

  <!-- Bottom tagline -->
  <text x="640" y="610"
        text-anchor="middle"
        font-family="'Courier New',monospace"
        font-size="13" letter-spacing="4"
        fill="#6b7280" opacity="0.8">100% ON-DEVICE  ·  100+ LANGUAGES  ·  ZERO CLOUD  ·  OPEN SOURCE</text>

  <!-- Foil overlay on entire banner -->
  <rect width="1280" height="640" fill="url(#foil)" opacity="0.08"/>

</svg>
